<svg width="164" height="106" viewBox="0 0 164 106" fill="none" xmlns="http://www.w3.org/2000/svg">
<path d="M42.8657 79.699C43.0299 79.7517 43.1137 79.8208 43.1137 79.9426V81.0323C43.1137 81.2068 43.0299 81.2759 42.8523 81.2759H39.6055C38.7712 81.2759 38.3457 81.559 38.3457 82.1516V82.3393C38.3457 82.81 38.5367 83.1195 39.1532 83.35L41.7165 84.331C43.0333 84.8413 43.6196 85.4767 43.6196 87.0371V87.4124C43.6196 89.4041 42.0448 89.9967 39.6725 89.9967C38.6573 89.9967 37.575 89.9144 36.2884 89.7136C36.1108 89.6741 36.0572 89.5918 36.0572 89.4173V88.3935C36.0572 88.2321 36.1409 88.1498 36.3185 88.1498H40.2087C41.0296 88.1498 41.4551 87.9062 41.4551 87.3137V87.1392C41.4551 86.5598 41.1804 86.2898 40.47 86.0231L37.7995 85.0388C36.6636 84.6207 36.1677 83.8536 36.1677 82.2932V81.9969C36.1677 80.0052 37.5784 79.4258 40.0043 79.4258C41.1401 79.4291 41.7969 79.5114 42.8657 79.699Z" fill="#0F4F80"/>
<path d="M60.889 79.5114C61.0264 79.5114 61.0934 79.5805 61.0934 79.7122V81.1542C61.0934 81.2891 61.0264 81.355 60.889 81.355H55.9702V83.8998H60.4635C60.6009 83.8998 60.6813 83.9656 60.6813 84.1006V85.4734C60.6813 85.6084 60.6009 85.6742 60.4635 85.6742H55.9702V88.084H60.889C61.0264 88.084 61.0934 88.1532 61.0934 88.2882V89.7301C61.0934 89.8651 61.0264 89.9309 60.889 89.9309H54.0235C53.8861 89.9309 53.8191 89.8651 53.8191 89.7169V79.7155C53.8191 79.5805 53.8861 79.5147 54.0235 79.5147H60.889V79.5114Z" fill="#0F4F80"/>
<path d="M80.075 79.5114C80.2124 79.5114 80.2794 79.5805 80.2794 79.7254V89.7136C80.2794 89.8618 80.2091 89.9276 80.075 89.9276H78.8018C78.4734 89.9276 78.3092 89.8453 78.1182 89.5918L73.625 83.1163V89.7136C73.625 89.8618 73.558 89.9276 73.4206 89.9276H71.6816C71.5442 89.9276 71.4772 89.8618 71.4772 89.7136V79.7254C71.4772 79.5772 71.5442 79.5114 71.6816 79.5114H73.0386C73.5881 79.5114 73.6551 79.6332 73.8897 79.9558L78.1383 86.0528V79.7254C78.1383 79.5772 78.2087 79.5114 78.3427 79.5114H80.075Z" fill="#0F4F80"/>
<path d="M97.3846 79.699C97.5488 79.7517 97.6326 79.8208 97.6326 79.9426V81.0323C97.6326 81.2068 97.5488 81.2759 97.3712 81.2759H94.1244C93.2901 81.2759 92.8646 81.5591 92.8646 82.1516V82.3393C92.8646 82.8101 93.0555 83.1195 93.6721 83.35L96.2353 84.331C97.5522 84.8413 98.1385 85.4767 98.1385 87.0371V87.4124C98.1385 89.4042 96.5637 89.9967 94.1914 89.9967C93.1762 89.9967 92.0939 89.9144 90.8072 89.7136C90.6297 89.6741 90.576 89.5918 90.576 89.4173V88.3935C90.576 88.2322 90.6598 88.1499 90.8374 88.1499H94.7275C95.5485 88.1499 95.974 87.9063 95.974 87.3137V87.1392C95.974 86.5598 95.6992 86.2898 94.9889 86.0232L92.3184 85.0388C91.1825 84.6207 90.6866 83.8537 90.6866 82.2932V81.9969C90.6866 80.0052 92.0973 79.4258 94.5231 79.4258C95.6557 79.4291 96.3158 79.5114 97.3846 79.699Z" fill="#0F4F80"/>
<path d="M116.886 84.7359C116.886 88.8017 115.941 90 112.446 90C108.951 90 108.006 88.8017 108.006 84.7359C108.006 80.6439 108.951 79.4324 112.446 79.4324C115.941 79.4291 116.886 80.6439 116.886 84.7359ZM110.184 84.7359C110.184 87.3466 110.553 88.1565 112.446 88.1565C114.336 88.1565 114.708 87.3499 114.708 84.7359C114.708 82.0957 114.339 81.2759 112.446 81.2759C110.553 81.2759 110.184 82.0957 110.184 84.7359Z" fill="#0F4F80"/>
<path d="M135.14 82.8891C135.14 84.9236 134.591 85.7302 133.043 86.0265L135.371 89.6609C135.482 89.8091 135.411 89.9309 135.207 89.9309H133.481C133.167 89.9309 133.073 89.8354 132.935 89.6346L130.687 86.1614H129.427V89.7169C129.427 89.8914 129.387 89.9309 129.219 89.9309H127.48C127.316 89.9309 127.273 89.8914 127.273 89.7169V79.7682C127.273 79.62 127.313 79.5937 127.48 79.5805C128.687 79.4719 130 79.4324 131.126 79.4324C134.125 79.4291 135.14 80.1961 135.14 82.8891ZM129.427 81.276V84.5351H130.908C132.54 84.5351 132.962 84.3212 132.962 82.9451C132.962 81.5986 132.537 81.276 130.908 81.276H129.427Z" fill="#0F4F80"/>
<path d="M117.7 33.3757C118.249 33.3757 118.497 33.57 118.397 34.1593L112.168 65.6911C111.173 70.8827 110.174 71.5181 104.743 71.5181C98.5138 71.5181 97.8638 70.8827 96.5704 65.6911L92.1341 47.1828L87.6476 65.6911C86.4011 70.8827 85.7042 71.5181 79.5255 71.5181C74.0941 71.5181 73.0956 70.8827 72.0502 65.6911L65.8715 34.1593C65.771 33.5733 66.0223 33.3757 66.5182 33.3757H73.1458C73.5948 33.3757 73.7423 33.57 73.8428 34.1593L79.1737 62.2146C79.4719 63.4393 79.6729 63.6829 80.3196 63.6829C81.1171 63.6829 81.3148 63.4393 81.6163 62.2146L88.1435 35.4827C88.2943 34.8967 88.7399 34.6992 89.1889 34.6992H95.0693C95.5183 34.6992 95.917 34.8934 96.0645 35.4827L102.642 62.2146C102.94 63.4393 103.091 63.6829 103.888 63.6829C104.535 63.6829 104.786 63.4393 105.034 62.2146L110.365 34.1593C110.516 33.5733 110.613 33.3757 111.112 33.3757H117.7Z" fill="#58595B"/>
<path d="M130.161 33.3757C130.66 33.3757 130.908 33.6193 130.908 34.1099V64.5652H147.253C147.752 64.5652 148 64.8088 148 65.2993V70.537C148 71.0276 147.752 71.2712 147.253 71.2712H123.832C123.332 71.2712 123.084 71.0276 123.084 70.4877V34.1099C123.084 33.6193 123.332 33.3757 123.832 33.3757H130.161Z" fill="#58595B"/>
<path fill-rule="evenodd" clip-rule="evenodd" d="M40.6543 46.0536C43.2276 46.0536 45.3184 48.1112 45.3184 50.6363C45.3184 53.1646 43.2243 55.2189 40.6543 55.2189C38.0843 55.2189 35.9901 53.1613 35.9901 50.6363C35.9901 50.6033 36.0002 50.5737 36.0002 50.5441C38.4965 50.5836 40.6576 50.6363 40.6576 50.6363V46.0536H40.6543Z" fill="#0F4F80"/>
<path fill-rule="evenodd" clip-rule="evenodd" d="M31.2422 50.5112C32.3312 50.5046 33.6212 50.5145 34.8945 50.5309C34.8945 50.5671 34.8844 50.6033 34.8844 50.6396C34.8844 53.7638 37.4712 56.3086 40.6543 56.3086C43.8374 56.3086 46.4242 53.7671 46.4242 50.6396C46.4242 47.5153 43.8374 44.9705 40.6543 44.9705V41.3854C45.8546 41.3854 50.0731 45.5302 50.0731 50.6396C50.0731 55.7489 45.8546 59.8937 40.6543 59.8937C35.454 59.8937 31.2355 55.7489 31.2355 50.6396C31.2355 50.5935 31.2422 50.554 31.2422 50.5112Z" fill="#0F4F80"/>
<path d="M65.3086 18.93C61.4218 27.3545 52.5928 29.6326 43.7068 31.9239C39.2872 33.063 34.8476 34.2086 31.5337 36.0884C29.0207 37.5139 26.9333 39.5945 25.4858 42.0932C24.0718 44.5294 23.271 47.3705 23.271 50.3992C23.271 54.9917 25.1641 59.1497 28.2266 62.1586C31.2891 65.1676 35.5211 67.0277 40.1953 67.0277C44.8694 67.0277 49.1014 65.1676 52.1639 62.1586C55.2264 59.1497 57.1195 54.9917 57.1195 50.3992C57.1195 48.1738 56.6772 46.0076 55.8396 44.0224C55.0086 42.0472 53.7655 40.2134 52.1639 38.6398L57.3038 33.5897C59.5588 35.8053 61.328 38.4357 62.5409 41.3163C63.7505 44.1837 64.3905 47.2684 64.3905 50.3992C64.3905 56.9637 61.6832 62.9059 57.3038 67.2087C52.9278 71.5115 46.8765 74.1715 40.1953 74.1715C33.514 74.1715 27.466 71.5115 23.0867 67.2087C18.7107 62.9059 16 56.9637 16 50.3992C16 46.1228 17.1526 42.0768 19.1831 38.5806C21.2639 34.9955 24.2795 31.9931 27.9284 29.9256C32.1235 27.5454 37.0021 26.2878 41.8639 25.0335C49.0746 23.1735 56.2417 21.3266 58.6977 16L65.3086 18.93Z" fill="#58595B"/>
</svg>
